REM DIRINDEX 1\2\4,1\2\5,1\2\6,1\3\7,1\3\8,1\3\9,1\3\10
REM DIRNAME folder01,folder02,folder03,folder04,folder05,folder06,folder07,folder08,folder09,folder10
TITLE ""
FILE "b_18.mp3" MP3
  TRACK 01 AUDIO
    TITLE "0:"
    INDEX 01 00:00:00
  TRACK 02 AUDIO
    TITLE "10:cjc058_2662"
    INDEX 01 00:00:09
  TRACK 03 AUDIO
    TITLE "0:"
    INDEX 01 00:05:01
  TRACK 04 AUDIO
    TITLE "7:cjc058_2663"
    INDEX 01 00:05:46
  TRACK 05 AUDIO
    TITLE "0:"
    INDEX 01 00:06:73
  TRACK 06 AUDIO
    TITLE "8:cjc058_2664"
    INDEX 01 00:07:27
  TRACK 07 AUDIO
    TITLE "0:"
    INDEX 01 00:09:34
  TRACK 08 AUDIO
    TITLE "9:cjc058_2665"
    INDEX 01 00:09:73
  TRACK 09 AUDIO
    TITLE "0:"
    INDEX 01 00:14:60
  TRACK 10 AUDIO
    TITLE "7:cjc058_2666"
    INDEX 01 00:15:70
  TRACK 11 AUDIO
    TITLE "0:"
    INDEX 01 00:17:27
  TRACK 12 AUDIO
    TITLE "8:cjc058_2667"
    INDEX 01 00:17:59
  TRACK 13 AUDIO
    TITLE "0:"
    INDEX 01 00:20:34
  TRACK 14 AUDIO
    TITLE "9:cjc058_2668"
    INDEX 01 00:20:73
  TRACK 15 AUDIO
    TITLE "0:"
    INDEX 01 00:24:72
  TRACK 16 AUDIO
    TITLE "7:cjc058_2669"
    INDEX 01 00:26:01
  TRACK 17 AUDIO
    TITLE "0:"
    INDEX 01 00:27:28
  TRACK 18 AUDIO
    TITLE "8:cjc058_2670"
    INDEX 01 00:27:59
  TRACK 19 AUDIO
    TITLE "0:"
    INDEX 01 00:29:31
  TRACK 20 AUDIO
    TITLE "9:cjc058_2671"
    INDEX 01 00:29:74
  TRACK 21 AUDIO
    TITLE "0:"
    INDEX 01 00:32:66
  TRACK 22 AUDIO
    TITLE "7:cjc058_2672"
    INDEX 01 00:33:68
  TRACK 23 AUDIO
    TITLE "0:"
    INDEX 01 00:35:43
  TRACK 24 AUDIO
    TITLE "8:cjc058_2673"
    INDEX 01 00:35:72
  TRACK 25 AUDIO
    TITLE "0:"
    INDEX 01 00:39:17
  TRACK 26 AUDIO
    TITLE "9:cjc058_2674"
    INDEX 01 00:39:56
  TRACK 27 AUDIO
    TITLE "0:"
    INDEX 01 00:42:23
  TRACK 28 AUDIO
    TITLE "7:cjc058_2675"
    INDEX 01 00:43:31
  TRACK 29 AUDIO
    TITLE "0:"
    INDEX 01 00:44:52
  TRACK 30 AUDIO
    TITLE "8:cjc058_2676"
    INDEX 01 00:45:10
  TRACK 31 AUDIO
    TITLE "0:"
    INDEX 01 00:47:64
  TRACK 32 AUDIO
    TITLE "9:cjc058_2677"
    INDEX 01 00:48:32
  TRACK 33 AUDIO
    TITLE "0:"
    INDEX 01 00:50:41
  TRACK 34 AUDIO
    TITLE "7:cjc058_2678"
    INDEX 01 00:51:46
  TRACK 35 AUDIO
    TITLE "0:"
    INDEX 01 00:53:04
  TRACK 36 AUDIO
    TITLE "8:cjc058_2679"
    INDEX 01 00:53:35
  TRACK 37 AUDIO
    TITLE "0:"
    INDEX 01 00:55:18
  TRACK 38 AUDIO
    TITLE "9:cjc058_2680"
    INDEX 01 00:55:61
  TRACK 39 AUDIO
    TITLE "0:"
    INDEX 01 00:58:22
  TRACK 40 AUDIO
    TITLE "7:cjc058_2681"
    INDEX 01 00:59:28
  TRACK 41 AUDIO
    TITLE "0:"
    INDEX 01 01:00:51
  TRACK 42 AUDIO
    TITLE "8:cjc058_2682"
    INDEX 01 01:01:09
  TRACK 43 AUDIO
    TITLE "0:"
    INDEX 01 01:03:26
  TRACK 44 AUDIO
    TITLE "9:cjc058_2683"
    INDEX 01 01:03:69
  TRACK 45 AUDIO
    TITLE "0:"
    INDEX 01 01:06:22
  TRACK 46 AUDIO
    TITLE "7:cjc058_2684"
    INDEX 01 01:07:25
  TRACK 47 AUDIO
    TITLE "0:"
    INDEX 01 01:08:64
  TRACK 48 AUDIO
    TITLE "8:cjc058_2685"
    INDEX 01 01:09:20
  TRACK 49 AUDIO
    TITLE "0:"
    INDEX 01 01:10:61
  TRACK 50 AUDIO
    TITLE "9:cjc058_2686"
    INDEX 01 01:11:31
  TRACK 51 AUDIO
    TITLE "0:"
    INDEX 01 01:15:13
  TRACK 52 AUDIO
    TITLE "7:cjc058_2687"
    INDEX 01 01:16:22
  TRACK 53 AUDIO
    TITLE "0:"
    INDEX 01 01:17:55
  TRACK 54 AUDIO
    TITLE "8:cjc058_2688"
    INDEX 01 01:18:07
  TRACK 55 AUDIO
    TITLE "0:"
    INDEX 01 01:20:28
  TRACK 56 AUDIO
    TITLE "9:cjc058_2689"
    INDEX 01 01:20:69
  TRACK 57 AUDIO
    TITLE "0:"
    INDEX 01 01:23:62
  TRACK 58 AUDIO
    TITLE "7:cjc058_2690"
    INDEX 01 01:24:63
  TRACK 59 AUDIO
    TITLE "0:"
    INDEX 01 01:26:09
  TRACK 60 AUDIO
    TITLE "8:cjc058_2691"
    INDEX 01 01:26:40
  TRACK 61 AUDIO
    TITLE "0:"
    INDEX 01 01:28:61
  TRACK 62 AUDIO
    TITLE "9:cjc058_2692"
    INDEX 01 01:29:27
  TRACK 63 AUDIO
    TITLE "0:"
    INDEX 01 01:33:25
